<?xml version="1.0" encoding="utf-8"?>
<!-- Generator: Adobe Illustrator 22.1.0, SVG Export Plug-In . SVG Version: 6.00 Build 0)  -->
<svg version="1.1" id="Layer_1" xmlns="http://www.w3.org/2000/svg" xmlns:xlink="http://www.w3.org/1999/xlink" x="0px" y="0px"
	 viewBox="0 0 576 432" style="enable-background:new 0 0 576 432;" xml:space="preserve">
<style type="text/css">
	.st0{fill:#FFFFFF;stroke:#000000;stroke-miterlimit:10;}
	.st1{font-family:'Helvetica-Light';}
	.st2{font-size:16.5735px;}
	.st3{font-size:7.7343px;}
	.st4{font-family:'Helvetica-Bold';}
	.st5{font-size:4.9721px;}
	.st6{font-size:10px;}
	.st7{font-size:16.5736px;}
	.st8{fill:none;stroke:#605D5D;stroke-miterlimit:10;}
	.st9{fill:none;stroke:#605D5D;stroke-miterlimit:10;stroke-dasharray:0.9771,1.9543;}
	.st10{fill:none;stroke:#605D5D;stroke-miterlimit:10;stroke-dasharray:0.9953,1.9907;}
	.st11{fill:none;stroke:#605D5D;stroke-miterlimit:10;stroke-dasharray:1.0091,2.0182;}
	.st12{fill:none;stroke:#605D5D;stroke-miterlimit:10;stroke-dasharray:0.9933,1.9866;}
	.st13{fill:none;stroke:#605D5D;stroke-miterlimit:10;stroke-dasharray:0.9917,1.9833;}
</style>
<line class="st0" x1="217.3" y1="35" x2="217.3" y2="270"/>
<text transform="matrix(1 0 0 1 144.293 270.3271)" class="st1 st2">person</text>
<text transform="matrix(1 0 0 1 196.3022 65.6826)" class="st1 st3">10</text>
<text transform="matrix(1 0 0 1 196.3022 88.3826)" class="st1 st3">10</text>
<text transform="matrix(1 0 0 1 196.3022 110.9826)" class="st1 st3">10</text>
<text transform="matrix(1 0 0 1 196.3022 133.6826)" class="st1 st3">10</text>
<text transform="matrix(1 0 0 1 196.3022 156.2826)" class="st1 st3">10</text>
<text transform="matrix(1 0 0 1 196.3022 178.9826)" class="st1 st3">10</text>
<text transform="matrix(1 0 0 1 196.3022 201.5826)" class="st1 st3">10</text>
<text transform="matrix(1 0 0 1 196.3022 224.2826)" class="st1 st3">10</text>
<text transform="matrix(1 0 0 1 196.3022 246.8826)" class="st1 st3">10</text>
<text transform="matrix(1 0 0 1 200.6022 269.5826)" class="st1 st3">1</text>
<text transform="matrix(1 0 0 1 205.1826 60.1992)" class="st4 st5">9</text>
<text transform="matrix(1 0 0 1 205.1826 82.8992)" class="st4 st5">8</text>
<text transform="matrix(1 0 0 1 205.1826 105.4992)" class="st4 st5">7</text>
<text transform="matrix(1 0 0 1 205.1826 128.1992)" class="st4 st5">6</text>
<text transform="matrix(1 0 0 1 205.1826 150.7992)" class="st4 st5">5</text>
<text transform="matrix(1 0 0 1 205.1826 173.4992)" class="st4 st5">4</text>
<text transform="matrix(1 0 0 1 205.1826 196.0992)" class="st4 st5">3</text>
<text transform="matrix(1 0 0 1 205.1826 218.7992)" class="st4 st5">2</text>
<text transform="matrix(1 0 0 1 58.8037 90.1846)" class="st1 st2">3.3 million people</text>
<text transform="matrix(1 0 0 1 131.7773 101.623)" class="st1 st6">United States</text>
<text transform="matrix(1 0 0 1 56.5938 60.3516)" class="st1 st2">7.44 billion people</text>
<text transform="matrix(1 0 0 1 148.9023 70.6846)" class="st1 st6">the world</text>
<g>
	<line class="st0" x1="217.2" y1="269.3" x2="207" y2="269.3"/>
	<line class="st0" x1="217.2" y1="246.8" x2="207" y2="246.8"/>
	<line class="st0" x1="217.2" y1="224.3" x2="207" y2="224.3"/>
	<line class="st0" x1="217.2" y1="201.8" x2="207" y2="201.8"/>
	<line class="st0" x1="217.2" y1="179.3" x2="207" y2="179.3"/>
	<line class="st0" x1="217.2" y1="156.8" x2="207" y2="156.8"/>
	<line class="st0" x1="217.2" y1="134.3" x2="207" y2="134.3"/>
	<line class="st0" x1="217.2" y1="111.8" x2="207" y2="111.8"/>
	<line class="st0" x1="217.2" y1="89.2" x2="207" y2="89.2"/>
	<line class="st0" x1="217.2" y1="66.7" x2="207" y2="66.7"/>
	<line class="st0" x1="217.2" y1="44.2" x2="207" y2="44.2"/>
</g>
<text transform="matrix(0.7071 0.7071 -0.7071 0.7071 340.1285 247.3615)" class="st1 st7">a county </text>
<text transform="matrix(0.7071 0.7071 -0.7071 0.7071 332.9889 258.2221)" class="st1 st6">is between 76 and 10,057,155 people</text>
<text transform="matrix(0.7071 0.7071 -0.7071 0.7071 249.0572 277.9855)" class="st1 st7">a block group</text>
<text transform="matrix(0.7071 0.7071 -0.7071 0.7071 238.8785 288.8065)" class="st1 st6"> is between 3 and 47,043 people</text>
<text transform="matrix(0.7071 0.7071 -0.7071 0.7071 310.0953 275.569)" class="st1 st7">a tract</text>
<text transform="matrix(0.7071 0.7071 -0.7071 0.7071 300.8238 282.2978)" class="st1 st6"> is between 3 and 61,133 people</text>
<text transform="matrix(0.7071 0.7071 -0.7071 0.7071 366.7828 170.5915)" class="st1 st7">a state </text>
<text transform="matrix(0.7071 0.7071 -0.7071 0.7071 360.8141 181.6232)" class="st1 st6">is between 583,029 and 38,654,206 people</text>
<line class="st0" x1="252.2" y1="269.4" x2="252.2" y2="177.7"/>
<line class="st0" x1="310.6" y1="269.4" x2="310.6" y2="172.1"/>
<line class="st0" x1="338.9" y1="241.7" x2="338.9" y2="111.4"/>
<line class="st0" x1="367.3" y1="161.4" x2="367.3" y2="108.4"/>
<g>
	<g>
		<line class="st8" x1="252.2" y1="177.7" x2="251.7" y2="177.7"/>
		<line class="st9" x1="249.7" y1="177.7" x2="218.5" y2="177.7"/>
		<line class="st8" x1="217.5" y1="177.7" x2="217" y2="177.7"/>
	</g>
</g>
<g>
	<g>
		<line class="st8" x1="310.2" y1="172.7" x2="309.7" y2="172.7"/>
		<line class="st10" x1="307.7" y1="172.7" x2="219.1" y2="172.7"/>
		<line class="st8" x1="218.1" y1="172.7" x2="217.6" y2="172.7"/>
	</g>
</g>
<g>
	<g>
		<line class="st8" x1="310.2" y1="269.7" x2="309.7" y2="269.7"/>
		<line class="st10" x1="307.7" y1="269.7" x2="219.1" y2="269.7"/>
		<line class="st8" x1="218.1" y1="269.7" x2="217.6" y2="269.7"/>
	</g>
</g>
<g>
	<g>
		<line class="st8" x1="338.2" y1="112.7" x2="337.7" y2="112.7"/>
		<line class="st11" x1="335.7" y1="112.7" x2="221.7" y2="112.7"/>
		<line class="st8" x1="220.6" y1="112.7" x2="220.1" y2="112.7"/>
	</g>
</g>
<g>
	<g>
		<line class="st8" x1="338.2" y1="241.7" x2="337.7" y2="241.7"/>
		<line class="st11" x1="335.7" y1="241.7" x2="221.7" y2="241.7"/>
		<line class="st8" x1="220.6" y1="241.7" x2="220.1" y2="241.7"/>
	</g>
</g>
<g>
	<g>
		<line class="st8" x1="366.2" y1="109.7" x2="365.7" y2="109.7"/>
		<line class="st12" x1="363.7" y1="109.7" x2="218.7" y2="109.8"/>
		<line class="st8" x1="217.7" y1="109.8" x2="217.2" y2="109.8"/>
	</g>
</g>
<g>
	<g>
		<line class="st8" x1="366.2" y1="160.7" x2="365.7" y2="160.7"/>
		<line class="st13" x1="363.7" y1="160.7" x2="218.9" y2="160.7"/>
		<line class="st8" x1="217.9" y1="160.7" x2="217.4" y2="160.7"/>
	</g>
</g>
<g>
	<g>
		<line class="st8" x1="252.2" y1="269.7" x2="251.7" y2="269.7"/>
		<line class="st9" x1="249.7" y1="269.7" x2="218.5" y2="269.7"/>
		<line class="st8" x1="217.5" y1="269.7" x2="217" y2="269.7"/>
	</g>
</g>
</svg>
