<?xml version="1.0" encoding="utf-8"?>
<!-- Generator: Adobe Illustrator 22.0.1, SVG Export Plug-In . SVG Version: 6.00 Build 0)  -->
<svg version="1.1" id="Layer_1" xmlns="http://www.w3.org/2000/svg" xmlns:xlink="http://www.w3.org/1999/xlink" x="0px" y="0px"
	 viewBox="0 0 432 432" style="enable-background:new 0 0 432 432;" xml:space="preserve">
<style type="text/css">
	.st0{fill:none;stroke:#FDFADD;stroke-miterlimit:10;}
	.st1{fill:#FDFADD;}
	.st2{font-family:'Helvetica-Light';}
	.st3{font-size:16.5735px;}
	.st4{font-size:7.7343px;}
	.st5{font-family:'Helvetica-Bold';}
	.st6{font-size:4.9721px;}
	.st7{font-size:16.5736px;}
	.st8{font-size:6.6294px;}
</style>
<line class="st0" x1="164.3" y1="2" x2="164.3" y2="237"/>
<text transform="matrix(1 0 0 1 91.293 235.3271)" class="st1 st2 st3">person</text>
<text transform="matrix(1 0 0 1 143.3022 32.6826)"><tspan x="0" y="0" class="st1 st2 st4">10</tspan><tspan x="0" y="22.7" class="st1 st2 st4">10</tspan><tspan x="0" y="45.3" class="st1 st2 st4">10</tspan><tspan x="0" y="68" class="st1 st2 st4">10</tspan><tspan x="0" y="90.6" class="st1 st2 st4">10</tspan><tspan x="0" y="113.3" class="st1 st2 st4">10</tspan><tspan x="0" y="135.9" class="st1 st2 st4">10</tspan><tspan x="0" y="158.6" class="st1 st2 st4">10</tspan><tspan x="0" y="181.2" class="st1 st2 st4">10</tspan><tspan x="4.3" y="203.9" class="st1 st2 st4">1</tspan></text>
<text transform="matrix(1 0 0 1 152.1826 27.1992)"><tspan x="0" y="0" class="st1 st5 st6">9</tspan><tspan x="0" y="22.7" class="st1 st5 st6">8</tspan><tspan x="0" y="45.3" class="st1 st5 st6">7</tspan><tspan x="0" y="68" class="st1 st5 st6">6</tspan><tspan x="0" y="90.6" class="st1 st5 st6">5</tspan><tspan x="0" y="113.3" class="st1 st5 st6">4</tspan><tspan x="0" y="135.9" class="st1 st5 st6">3</tspan><tspan x="0" y="158.6" class="st1 st5 st6">2</tspan></text>
<text transform="matrix(1 0 0 1 5.8037 57.1846)" class="st1 st2 st3">3.3 million people</text>
<text transform="matrix(1 0 0 1 89.7773 67.623)" class="st1 st2 st4">United States</text>
<text transform="matrix(1 0 0 1 3.5938 27.3516)" class="st1 st2 st3">7.44 billion people</text>
<text transform="matrix(1 0 0 1 106.9023 36.6846)" class="st1 st2 st4">the world</text>
<g>
	<line class="st0" x1="164.2" y1="236.3" x2="154" y2="236.3"/>
	<line class="st0" x1="164.2" y1="213.8" x2="154" y2="213.8"/>
	<line class="st0" x1="164.2" y1="191.3" x2="154" y2="191.3"/>
	<line class="st0" x1="164.2" y1="168.8" x2="154" y2="168.8"/>
	<line class="st0" x1="164.2" y1="146.3" x2="154" y2="146.3"/>
	<line class="st0" x1="164.2" y1="123.8" x2="154" y2="123.8"/>
	<line class="st0" x1="164.2" y1="101.3" x2="154" y2="101.3"/>
	<line class="st0" x1="164.2" y1="78.8" x2="154" y2="78.8"/>
	<line class="st0" x1="164.2" y1="56.2" x2="154" y2="56.2"/>
	<line class="st0" x1="164.2" y1="33.7" x2="154" y2="33.7"/>
	<line class="st0" x1="164.2" y1="11.2" x2="154" y2="11.2"/>
</g>
<text transform="matrix(0.7071 0.7071 -0.7071 0.7071 257.1284 214.3615)"><tspan x="0" y="0" class="st1 st2 st7">a county </tspan><tspan x="69.1" y="0" class="st1 st5 st8">is between 76 and 10,057,155 people</tspan></text>
<text transform="matrix(0.7071 0.7071 -0.7071 0.7071 198.0575 242.9854)"><tspan x="0" y="0" class="st1 st2 st7">a block group</tspan><tspan x="104.4" y="0" class="st1 st5 st8"> is between 3 and 47,043 people</tspan></text>
<text transform="matrix(0.7071 0.7071 -0.7071 0.7071 227.0951 242.5691)"><tspan x="0" y="0" class="st1 st2 st7">a tract</tspan><tspan x="47.7" y="0" class="st1 st5 st8"> is between 3 and 61,133 people</tspan></text>
<text transform="matrix(0.7071 0.7071 -0.7071 0.7071 283.7824 137.5914)"><tspan x="0" y="0" class="st1 st2 st7">a state </tspan><tspan x="55.2" y="0" class="st1 st5 st8">is between 583,029 and 38,654,206 people</tspan></text>
<line class="st0" x1="199.2" y1="236.4" x2="199.2" y2="144.7"/>
<line class="st0" x1="227.6" y1="236.4" x2="227.6" y2="139.1"/>
<line class="st0" x1="255.9" y1="208.7" x2="255.9" y2="78.4"/>
<line class="st0" x1="284.3" y1="131.4" x2="284.3" y2="78.4"/>
</svg>
